<?xml version="1.0" encoding="UTF-8" standalone="no"?>
<!DOCTYPE svg PUBLIC "-//W3C//DTD SVG 1.1//EN"
 "http://www.w3.org/Graphics/SVG/1.1/DTD/svg11.dtd">
<!-- Generated by graphviz version 2.43.0 (0)
 -->
<!-- Title: G Pages: 1 -->
<svg width="188pt" height="136pt"
 viewBox="0.00 0.00 188.00 136.00" xmlns="http://www.w3.org/2000/svg" xmlns:xlink="http://www.w3.org/1999/xlink">
<g id="graph0" class="graph" transform="scale(1 1) rotate(0) translate(4 132)">
<title>G</title>
<polygon fill="white" stroke="transparent" points="-4,4 -4,-132 184,-132 184,4 -4,4"/>
<g id="clust1" class="cluster">
<title>cluster1</title>
<polygon fill="none" stroke="black" points="8,-8 8,-120 172,-120 172,-8 8,-8"/>
<text text-anchor="middle" x="90" y="-104.8" font-family="Times,serif" font-size="14.00">com</text>
</g>
<g id="clust2" class="cluster">
<title>cluster2</title>
<polygon fill="none" stroke="black" points="94,-16 94,-90 164,-90 164,-16 94,-16"/>
<text text-anchor="middle" x="129" y="-74.8" font-family="Times,serif" font-size="14.00">phodal</text>
</g>
<g id="clust3" class="cluster">
<title>cluster3</title>
<polygon fill="none" stroke="black" points="16,-16 16,-90 86,-90 86,-16 16,-16"/>
<text text-anchor="middle" x="51" y="-74.8" font-family="Times,serif" font-size="14.00">hug</text>
</g>
<!-- node19 -->
<g id="node1" class="node">
<title>node19</title>
<polygon fill="none" stroke="black" points="156,-60 102,-60 102,-24 156,-24 156,-60"/>
<text text-anchor="middle" x="129" y="-37.8" font-family="Times,serif" font-size="14.00">Ledge</text>
</g>
<!-- node20 -->
<g id="node2" class="node">
<title>node20</title>
<polygon fill="none" stroke="black" points="78,-60 24,-60 24,-24 78,-24 78,-60"/>
<text text-anchor="middle" x="51" y="-37.8" font-family="Times,serif" font-size="14.00">Spring</text>
</g>
</g>
</svg>
