<?xml version="1.0" encoding="UTF-8" standalone="no"?>
<!DOCTYPE svg PUBLIC "-//W3C//DTD SVG 1.1//EN"
 "http://www.w3.org/Graphics/SVG/1.1/DTD/svg11.dtd">
<!-- Generated by graphviz version 2.43.0 (0)
 -->
<!-- Title: G Pages: 1 -->
<svg width="3304pt" height="332pt"
 viewBox="0.00 0.00 3303.80 332.00" xmlns="http://www.w3.org/2000/svg" xmlns:xlink="http://www.w3.org/1999/xlink">
<g id="graph0" class="graph" transform="scale(1 1) rotate(0) translate(4 328)">
<title>G</title>
<polygon fill="white" stroke="transparent" points="-4,4 -4,-328 3299.8,-328 3299.8,4 -4,4"/>
<!-- book.BookFactory.create -->
<g id="node1" class="node">
<title>book.BookFactory.create</title>
<ellipse fill="none" stroke="black" cx="2531.83" cy="-162" rx="98.84" ry="18"/>
<text text-anchor="middle" x="2531.83" y="-157.8" font-family="Times,serif" font-size="14.00">book.BookFactory.create</text>
</g>
<!-- core.IdGenerator.generate -->
<g id="node2" class="node">
<title>core.IdGenerator.generate</title>
<ellipse fill="none" stroke="black" cx="2422.83" cy="-90" rx="101.85" ry="18"/>
<text text-anchor="middle" x="2422.83" y="-85.8" font-family="Times,serif" font-size="14.00">core.IdGenerator.generate</text>
</g>
<!-- book.BookFactory.create&#45;&gt;core.IdGenerator.generate -->
<g id="edge1" class="edge">
<title>book.BookFactory.create&#45;&gt;core.IdGenerator.generate</title>
<path fill="none" stroke="black" d="M2506.27,-144.59C2491.62,-135.18 2473.03,-123.24 2457.12,-113.02"/>
<polygon fill="black" stroke="black" points="2458.9,-110.01 2448.6,-107.55 2455.12,-115.9 2458.9,-110.01"/>
</g>
<!-- book.model.Book.create -->
<g id="node3" class="node">
<title>book.model.Book.create</title>
<ellipse fill="none" stroke="black" cx="2639.83" cy="-90" rx="96.59" ry="18"/>
<text text-anchor="middle" x="2639.83" y="-85.8" font-family="Times,serif" font-size="14.00">book.model.Book.create</text>
</g>
<!-- book.BookFactory.create&#45;&gt;book.model.Book.create -->
<g id="edge8" class="edge">
<title>book.BookFactory.create&#45;&gt;book.model.Book.create</title>
<path fill="none" stroke="black" d="M2557.15,-144.59C2571.67,-135.18 2590.08,-123.24 2605.85,-113.02"/>
<polygon fill="black" stroke="black" points="2607.8,-115.93 2614.29,-107.55 2603.99,-110.05 2607.8,-115.93"/>
</g>
<!-- book.model.Book.builder -->
<g id="node4" class="node">
<title>book.model.Book.builder</title>
<ellipse fill="none" stroke="black" cx="2145.83" cy="-18" rx="100.99" ry="18"/>
<text text-anchor="middle" x="2145.83" y="-13.8" font-family="Times,serif" font-size="14.00">book.model.Book.builder</text>
</g>
<!-- book.model.Book.create&#45;&gt;book.model.Book.builder -->
<g id="edge2" class="edge">
<title>book.model.Book.create&#45;&gt;book.model.Book.builder</title>
<path fill="none" stroke="black" d="M2570.03,-77.49C2557.96,-75.59 2545.54,-73.69 2533.83,-72 2410.09,-54.1 2378.6,-53.63 2254.83,-36 2246.22,-34.77 2237.23,-33.45 2228.27,-32.09"/>
<polygon fill="black" stroke="black" points="2228.61,-28.61 2218.2,-30.56 2227.56,-35.53 2228.61,-28.61"/>
</g>
<!-- book.model.Book.id -->
<g id="node5" class="node">
<title>book.model.Book.id</title>
<ellipse fill="none" stroke="black" cx="2346.83" cy="-18" rx="82.65" ry="18"/>
<text text-anchor="middle" x="2346.83" y="-13.8" font-family="Times,serif" font-size="14.00">book.model.Book.id</text>
</g>
<!-- book.model.Book.create&#45;&gt;book.model.Book.id -->
<g id="edge3" class="edge">
<title>book.model.Book.create&#45;&gt;book.model.Book.id</title>
<path fill="none" stroke="black" d="M2582.99,-75.42C2533.53,-63.6 2461.92,-46.5 2410.54,-34.22"/>
<polygon fill="black" stroke="black" points="2411.08,-30.75 2400.54,-31.83 2409.46,-37.56 2411.08,-30.75"/>
</g>
<!-- book.model.Book.isbn -->
<g id="node6" class="node">
<title>book.model.Book.isbn</title>
<ellipse fill="none" stroke="black" cx="2537.83" cy="-18" rx="90.37" ry="18"/>
<text text-anchor="middle" x="2537.83" y="-13.8" font-family="Times,serif" font-size="14.00">book.model.Book.isbn</text>
</g>
<!-- book.model.Book.create&#45;&gt;book.model.Book.isbn -->
<g id="edge4" class="edge">
<title>book.model.Book.create&#45;&gt;book.model.Book.isbn</title>
<path fill="none" stroke="black" d="M2615.65,-72.41C2602.06,-63.08 2584.92,-51.32 2570.18,-41.2"/>
<polygon fill="black" stroke="black" points="2572.05,-38.24 2561.83,-35.47 2568.09,-44.01 2572.05,-38.24"/>
</g>
<!-- book.model.Book.name -->
<g id="node7" class="node">
<title>book.model.Book.name</title>
<ellipse fill="none" stroke="black" cx="2740.83" cy="-18" rx="94.69" ry="18"/>
<text text-anchor="middle" x="2740.83" y="-13.8" font-family="Times,serif" font-size="14.00">book.model.Book.name</text>
</g>
<!-- book.model.Book.create&#45;&gt;book.model.Book.name -->
<g id="edge5" class="edge">
<title>book.model.Book.create&#45;&gt;book.model.Book.name</title>
<path fill="none" stroke="black" d="M2663.76,-72.41C2677.22,-63.08 2694.2,-51.32 2708.79,-41.2"/>
<polygon fill="black" stroke="black" points="2710.84,-44.04 2717.06,-35.47 2706.85,-38.29 2710.84,-44.04"/>
</g>
<!-- book.model.Book.createdAt -->
<g id="node8" class="node">
<title>book.model.Book.createdAt</title>
<ellipse fill="none" stroke="black" cx="2963.83" cy="-18" rx="110.12" ry="18"/>
<text text-anchor="middle" x="2963.83" y="-13.8" font-family="Times,serif" font-size="14.00">book.model.Book.createdAt</text>
</g>
<!-- book.model.Book.create&#45;&gt;book.model.Book.createdAt -->
<g id="edge6" class="edge">
<title>book.model.Book.create&#45;&gt;book.model.Book.createdAt</title>
<path fill="none" stroke="black" d="M2700.39,-75.92C2754.12,-64.31 2832.78,-47.31 2890.15,-34.92"/>
<polygon fill="black" stroke="black" points="2891.2,-38.27 2900.24,-32.74 2889.73,-31.43 2891.2,-38.27"/>
</g>
<!-- book.model.Book.build -->
<g id="node9" class="node">
<title>book.model.Book.build</title>
<ellipse fill="none" stroke="black" cx="3185.83" cy="-18" rx="93.75" ry="18"/>
<text text-anchor="middle" x="3185.83" y="-13.8" font-family="Times,serif" font-size="14.00">book.model.Book.build</text>
</g>
<!-- book.model.Book.create&#45;&gt;book.model.Book.build -->
<g id="edge7" class="edge">
<title>book.model.Book.create&#45;&gt;book.model.Book.build</title>
<path fill="none" stroke="black" d="M2721.62,-80.32C2810.63,-70.61 2957.06,-53.89 3082.83,-36 3091.08,-34.83 3099.69,-33.52 3108.27,-32.18"/>
<polygon fill="black" stroke="black" points="3108.97,-35.61 3118.3,-30.59 3107.87,-28.7 3108.97,-35.61"/>
</g>
<!-- book.BookService.createBook -->
<g id="node10" class="node">
<title>book.BookService.createBook</title>
<ellipse fill="none" stroke="black" cx="2320.83" cy="-234" rx="118.33" ry="18"/>
<text text-anchor="middle" x="2320.83" y="-229.8" font-family="Times,serif" font-size="14.00">book.BookService.createBook</text>
</g>
<!-- book.BookService.createBook&#45;&gt;book.BookFactory.create -->
<g id="edge9" class="edge">
<title>book.BookService.createBook&#45;&gt;book.BookFactory.create</title>
<path fill="none" stroke="black" d="M2367.65,-217.46C2399.92,-206.76 2442.92,-192.49 2476.82,-181.25"/>
<polygon fill="black" stroke="black" points="2478.19,-184.48 2486.58,-178.01 2475.98,-177.84 2478.19,-184.48"/>
</g>
<!-- book.model.command.CreateBookCommand.getIsbn -->
<g id="node11" class="node">
<title>book.model.command.CreateBookCommand.getIsbn</title>
<ellipse fill="none" stroke="black" cx="2847.83" cy="-162" rx="198.97" ry="18"/>
<text text-anchor="middle" x="2847.83" y="-157.8" font-family="Times,serif" font-size="14.00">book.model.command.CreateBookCommand.getIsbn</text>
</g>
<!-- book.BookService.createBook&#45;&gt;book.model.command.CreateBookCommand.getIsbn -->
<g id="edge10" class="edge">
<title>book.BookService.createBook&#45;&gt;book.model.command.CreateBookCommand.getIsbn</title>
<path fill="none" stroke="black" d="M2406.67,-221.6C2494.79,-209.89 2632.52,-191.6 2730.64,-178.57"/>
<polygon fill="black" stroke="black" points="2731.15,-182.03 2740.6,-177.24 2730.23,-175.09 2731.15,-182.03"/>
</g>
<!-- book.model.command.CreateBookCommand.getName -->
<g id="node12" class="node">
<title>book.model.command.CreateBookCommand.getName</title>
<ellipse fill="none" stroke="black" cx="2004.83" cy="-162" rx="204.74" ry="18"/>
<text text-anchor="middle" x="2004.83" y="-157.8" font-family="Times,serif" font-size="14.00">book.model.command.CreateBookCommand.getName</text>
</g>
<!-- book.BookService.createBook&#45;&gt;book.model.command.CreateBookCommand.getName -->
<g id="edge11" class="edge">
<title>book.BookService.createBook&#45;&gt;book.model.command.CreateBookCommand.getName</title>
<path fill="none" stroke="black" d="M2256.88,-218.83C2207.83,-207.97 2139.77,-192.89 2086.73,-181.14"/>
<polygon fill="black" stroke="black" points="2087.2,-177.66 2076.68,-178.92 2085.68,-184.5 2087.2,-177.66"/>
</g>
<!-- book.BookRepository.save -->
<g id="node13" class="node">
<title>book.BookRepository.save</title>
<ellipse fill="none" stroke="black" cx="1676.83" cy="-162" rx="105.16" ry="18"/>
<text text-anchor="middle" x="1676.83" y="-157.8" font-family="Times,serif" font-size="14.00">book.BookRepository.save</text>
</g>
<!-- book.BookService.createBook&#45;&gt;book.BookRepository.save -->
<g id="edge13" class="edge">
<title>book.BookService.createBook&#45;&gt;book.BookRepository.save</title>
<path fill="none" stroke="black" d="M2220.54,-224.43C2113.84,-214.97 1940.17,-198.59 1790.83,-180 1781.47,-178.83 1771.69,-177.52 1761.97,-176.16"/>
<polygon fill="black" stroke="black" points="1762.27,-172.66 1751.87,-174.72 1761.28,-179.59 1762.27,-172.66"/>
</g>
<!-- book.model.Book.getId -->
<g id="node15" class="node">
<title>book.model.Book.getId</title>
<ellipse fill="none" stroke="black" cx="2320.83" cy="-162" rx="93.73" ry="18"/>
<text text-anchor="middle" x="2320.83" y="-157.8" font-family="Times,serif" font-size="14.00">book.model.Book.getId</text>
</g>
<!-- book.BookService.createBook&#45;&gt;book.model.Book.getId -->
<g id="edge14" class="edge">
<title>book.BookService.createBook&#45;&gt;book.model.Book.getId</title>
<path fill="none" stroke="black" d="M2320.83,-215.7C2320.83,-207.98 2320.83,-198.71 2320.83,-190.11"/>
<polygon fill="black" stroke="black" points="2324.33,-190.1 2320.83,-180.1 2317.33,-190.1 2324.33,-190.1"/>
</g>
<!-- book.BookMapper.doSave -->
<g id="node14" class="node">
<title>book.BookMapper.doSave</title>
<ellipse fill="none" stroke="black" cx="1676.83" cy="-90" rx="104.36" ry="18"/>
<text text-anchor="middle" x="1676.83" y="-85.8" font-family="Times,serif" font-size="14.00">book.BookMapper.doSave</text>
</g>
<!-- book.BookRepository.save&#45;&gt;book.BookMapper.doSave -->
<g id="edge12" class="edge">
<title>book.BookRepository.save&#45;&gt;book.BookMapper.doSave</title>
<path fill="none" stroke="black" d="M1670.91,-143.7C1670.11,-135.98 1669.89,-126.71 1670.23,-118.11"/>
<polygon fill="black" stroke="black" points="1673.72,-118.32 1670.93,-108.1 1666.74,-117.84 1673.72,-118.32"/>
</g>
<!-- book.BookRepository.save&#45;&gt;book.BookMapper.doSave -->
<g id="edge21" class="edge">
<title>book.BookRepository.save&#45;&gt;book.BookMapper.doSave</title>
<path fill="none" stroke="black" d="M1682.74,-143.7C1683.54,-135.98 1683.76,-126.71 1683.42,-118.11"/>
<polygon fill="black" stroke="black" points="1686.91,-117.84 1682.72,-108.1 1679.93,-118.32 1686.91,-117.84"/>
</g>
<!-- book.BookController.createBook -->
<g id="node16" class="node">
<title>book.BookController.createBook</title>
<ellipse fill="none" stroke="black" cx="2320.83" cy="-306" rx="127.52" ry="18"/>
<text text-anchor="middle" x="2320.83" y="-301.8" font-family="Times,serif" font-size="14.00">book.BookController.createBook</text>
</g>
<!-- book.BookController.createBook&#45;&gt;book.BookService.createBook -->
<g id="edge15" class="edge">
<title>book.BookController.createBook&#45;&gt;book.BookService.createBook</title>
<path fill="none" stroke="black" d="M2320.83,-287.7C2320.83,-279.98 2320.83,-270.71 2320.83,-262.11"/>
<polygon fill="black" stroke="black" points="2324.33,-262.1 2320.83,-252.1 2317.33,-262.1 2324.33,-262.1"/>
</g>
<!-- book.BookRepository.byId -->
<g id="node17" class="node">
<title>book.BookRepository.byId</title>
<ellipse fill="none" stroke="black" cx="105.83" cy="-162" rx="105.65" ry="18"/>
<text text-anchor="middle" x="105.83" y="-157.8" font-family="Times,serif" font-size="14.00">book.BookRepository.byId</text>
</g>
<!-- book.BookMapper.byId -->
<g id="node18" class="node">
<title>book.BookMapper.byId</title>
<ellipse fill="none" stroke="black" cx="105.83" cy="-90" rx="94.72" ry="18"/>
<text text-anchor="middle" x="105.83" y="-85.8" font-family="Times,serif" font-size="14.00">book.BookMapper.byId</text>
</g>
<!-- book.BookRepository.byId&#45;&gt;book.BookMapper.byId -->
<g id="edge16" class="edge">
<title>book.BookRepository.byId&#45;&gt;book.BookMapper.byId</title>
<path fill="none" stroke="black" d="M99.91,-143.7C99.11,-135.98 98.89,-126.71 99.23,-118.11"/>
<polygon fill="black" stroke="black" points="102.72,-118.32 99.93,-108.1 95.74,-117.84 102.72,-118.32"/>
</g>
<!-- book.BookRepository.byId&#45;&gt;book.BookMapper.byId -->
<g id="edge28" class="edge">
<title>book.BookRepository.byId&#45;&gt;book.BookMapper.byId</title>
<path fill="none" stroke="black" d="M111.74,-143.7C112.54,-135.98 112.76,-126.71 112.42,-118.11"/>
<polygon fill="black" stroke="black" points="115.91,-117.84 111.72,-108.1 108.93,-118.32 115.91,-117.84"/>
</g>
<!-- book.BookService.updateBook -->
<g id="node19" class="node">
<title>book.BookService.updateBook</title>
<ellipse fill="none" stroke="black" cx="764.83" cy="-234" rx="120.77" ry="18"/>
<text text-anchor="middle" x="764.83" y="-229.8" font-family="Times,serif" font-size="14.00">book.BookService.updateBook</text>
</g>
<!-- book.BookService.updateBook&#45;&gt;book.BookRepository.save -->
<g id="edge22" class="edge">
<title>book.BookService.updateBook&#45;&gt;book.BookRepository.save</title>
<path fill="none" stroke="black" d="M879.39,-228.34C1034.6,-221.35 1320.2,-206.1 1562.83,-180 1572.6,-178.95 1582.82,-177.67 1592.96,-176.3"/>
<polygon fill="black" stroke="black" points="1593.62,-179.74 1603.04,-174.9 1592.66,-172.81 1593.62,-179.74"/>
</g>
<!-- book.BookService.updateBook&#45;&gt;book.BookRepository.byId -->
<g id="edge17" class="edge">
<title>book.BookService.updateBook&#45;&gt;book.BookRepository.byId</title>
<path fill="none" stroke="black" d="M661.95,-224.57C552.24,-215.22 373.5,-198.92 219.83,-180 210.47,-178.85 200.69,-177.54 190.96,-176.18"/>
<polygon fill="black" stroke="black" points="191.26,-172.69 180.87,-174.75 190.28,-179.62 191.26,-172.69"/>
</g>
<!-- book.model.Book.save -->
<g id="node20" class="node">
<title>book.model.Book.save</title>
<ellipse fill="none" stroke="black" cx="609.83" cy="-162" rx="91.32" ry="18"/>
<text text-anchor="middle" x="609.83" y="-157.8" font-family="Times,serif" font-size="14.00">book.model.Book.save</text>
</g>
<!-- book.BookService.updateBook&#45;&gt;book.model.Book.save -->
<g id="edge18" class="edge">
<title>book.BookService.updateBook&#45;&gt;book.model.Book.save</title>
<path fill="none" stroke="black" d="M728.88,-216.76C706.45,-206.64 677.44,-193.54 653.68,-182.8"/>
<polygon fill="black" stroke="black" points="655.07,-179.59 644.51,-178.67 652.19,-185.97 655.07,-179.59"/>
</g>
<!-- book.model.command.UpdateBookCommand.getIsbn -->
<g id="node21" class="node">
<title>book.model.command.UpdateBookCommand.getIsbn</title>
<ellipse fill="none" stroke="black" cx="920.83" cy="-162" rx="201.39" ry="18"/>
<text text-anchor="middle" x="920.83" y="-157.8" font-family="Times,serif" font-size="14.00">book.model.command.UpdateBookCommand.getIsbn</text>
</g>
<!-- book.BookService.updateBook&#45;&gt;book.model.command.UpdateBookCommand.getIsbn -->
<g id="edge19" class="edge">
<title>book.BookService.updateBook&#45;&gt;book.model.command.UpdateBookCommand.getIsbn</title>
<path fill="none" stroke="black" d="M801.01,-216.76C822.76,-207 850.68,-194.48 874.09,-183.97"/>
<polygon fill="black" stroke="black" points="875.79,-187.04 883.49,-179.76 872.93,-180.66 875.79,-187.04"/>
</g>
<!-- book.model.command.UpdateBookCommand.getName -->
<g id="node22" class="node">
<title>book.model.command.UpdateBookCommand.getName</title>
<ellipse fill="none" stroke="black" cx="1346.83" cy="-162" rx="207.16" ry="18"/>
<text text-anchor="middle" x="1346.83" y="-157.8" font-family="Times,serif" font-size="14.00">book.model.command.UpdateBookCommand.getName</text>
</g>
<!-- book.BookService.updateBook&#45;&gt;book.model.command.UpdateBookCommand.getName -->
<g id="edge20" class="edge">
<title>book.BookService.updateBook&#45;&gt;book.model.command.UpdateBookCommand.getName</title>
<path fill="none" stroke="black" d="M855.44,-222.1C953.5,-210.31 1110.57,-191.42 1220.67,-178.17"/>
<polygon fill="black" stroke="black" points="1221.33,-181.62 1230.84,-176.95 1220.49,-174.67 1221.33,-181.62"/>
</g>
<!-- book.model.Book.toRepresentation -->
<g id="node23" class="node">
<title>book.model.Book.toRepresentation</title>
<ellipse fill="none" stroke="black" cx="364.83" cy="-162" rx="135.73" ry="18"/>
<text text-anchor="middle" x="364.83" y="-157.8" font-family="Times,serif" font-size="14.00">book.model.Book.toRepresentation</text>
</g>
<!-- book.BookService.updateBook&#45;&gt;book.model.Book.toRepresentation -->
<g id="edge23" class="edge">
<title>book.BookService.updateBook&#45;&gt;book.model.Book.toRepresentation</title>
<path fill="none" stroke="black" d="M689.59,-219.83C622.51,-208.09 524.24,-190.9 453.39,-178.5"/>
<polygon fill="black" stroke="black" points="453.6,-174.98 443.14,-176.71 452.39,-181.88 453.6,-174.98"/>
</g>
<!-- book.BookController.updateBook -->
<g id="node24" class="node">
<title>book.BookController.updateBook</title>
<ellipse fill="none" stroke="black" cx="764.83" cy="-306" rx="129.96" ry="18"/>
<text text-anchor="middle" x="764.83" y="-301.8" font-family="Times,serif" font-size="14.00">book.BookController.updateBook</text>
</g>
<!-- book.BookController.updateBook&#45;&gt;book.BookService.updateBook -->
<g id="edge24" class="edge">
<title>book.BookController.updateBook&#45;&gt;book.BookService.updateBook</title>
<path fill="none" stroke="black" d="M764.83,-287.7C764.83,-279.98 764.83,-270.71 764.83,-262.11"/>
<polygon fill="black" stroke="black" points="768.33,-262.1 764.83,-252.1 761.33,-262.1 768.33,-262.1"/>
</g>
<!-- book.BookRepository.list -->
<g id="node25" class="node">
<title>book.BookRepository.list</title>
<ellipse fill="none" stroke="black" cx="3164.83" cy="-162" rx="100.36" ry="18"/>
<text text-anchor="middle" x="3164.83" y="-157.8" font-family="Times,serif" font-size="14.00">book.BookRepository.list</text>
</g>
<!-- book.BookMapper.list -->
<g id="node26" class="node">
<title>book.BookMapper.list</title>
<ellipse fill="none" stroke="black" cx="3164.83" cy="-90" rx="89.42" ry="18"/>
<text text-anchor="middle" x="3164.83" y="-85.8" font-family="Times,serif" font-size="14.00">book.BookMapper.list</text>
</g>
<!-- book.BookRepository.list&#45;&gt;book.BookMapper.list -->
<g id="edge25" class="edge">
<title>book.BookRepository.list&#45;&gt;book.BookMapper.list</title>
<path fill="none" stroke="black" d="M3164.83,-143.7C3164.83,-135.98 3164.83,-126.71 3164.83,-118.11"/>
<polygon fill="black" stroke="black" points="3168.33,-118.1 3164.83,-108.1 3161.33,-118.1 3168.33,-118.1"/>
</g>
<!-- book.BookService.getBooksLists -->
<g id="node27" class="node">
<title>book.BookService.getBooksLists</title>
<ellipse fill="none" stroke="black" cx="3164.83" cy="-234" rx="128.51" ry="18"/>
<text text-anchor="middle" x="3164.83" y="-229.8" font-family="Times,serif" font-size="14.00">book.BookService.getBooksLists</text>
</g>
<!-- book.BookService.getBooksLists&#45;&gt;book.BookRepository.list -->
<g id="edge26" class="edge">
<title>book.BookService.getBooksLists&#45;&gt;book.BookRepository.list</title>
<path fill="none" stroke="black" d="M3164.83,-215.7C3164.83,-207.98 3164.83,-198.71 3164.83,-190.11"/>
<polygon fill="black" stroke="black" points="3168.33,-190.1 3164.83,-180.1 3161.33,-190.1 3168.33,-190.1"/>
</g>
<!-- book.BookController.getBookList -->
<g id="node28" class="node">
<title>book.BookController.getBookList</title>
<ellipse fill="none" stroke="black" cx="3164.83" cy="-306" rx="130.94" ry="18"/>
<text text-anchor="middle" x="3164.83" y="-301.8" font-family="Times,serif" font-size="14.00">book.BookController.getBookList</text>
</g>
<!-- book.BookController.getBookList&#45;&gt;book.BookService.getBooksLists -->
<g id="edge27" class="edge">
<title>book.BookController.getBookList&#45;&gt;book.BookService.getBooksLists</title>
<path fill="none" stroke="black" d="M3164.83,-287.7C3164.83,-279.98 3164.83,-270.71 3164.83,-262.11"/>
<polygon fill="black" stroke="black" points="3168.33,-262.1 3164.83,-252.1 3161.33,-262.1 3168.33,-262.1"/>
</g>
<!-- book.BookService.getBookById -->
<g id="node29" class="node">
<title>book.BookService.getBookById</title>
<ellipse fill="none" stroke="black" cx="215.83" cy="-234" rx="125.6" ry="18"/>
<text text-anchor="middle" x="215.83" y="-229.8" font-family="Times,serif" font-size="14.00">book.BookService.getBookById</text>
</g>
<!-- book.BookService.getBookById&#45;&gt;book.BookRepository.byId -->
<g id="edge29" class="edge">
<title>book.BookService.getBookById&#45;&gt;book.BookRepository.byId</title>
<path fill="none" stroke="black" d="M189.48,-216.23C174.78,-206.88 156.3,-195.12 140.45,-185.04"/>
<polygon fill="black" stroke="black" points="142.27,-182.05 131.96,-179.63 138.52,-187.95 142.27,-182.05"/>
</g>
<!-- book.BookService.getBookById&#45;&gt;book.model.Book.toRepresentation -->
<g id="edge30" class="edge">
<title>book.BookService.getBookById&#45;&gt;book.model.Book.toRepresentation</title>
<path fill="none" stroke="black" d="M250.76,-216.59C271.61,-206.79 298.28,-194.26 320.59,-183.78"/>
<polygon fill="black" stroke="black" points="322.29,-186.85 329.85,-179.43 319.31,-180.51 322.29,-186.85"/>
</g>
<!-- book.BookController.getBookById -->
<g id="node30" class="node">
<title>book.BookController.getBookById</title>
<ellipse fill="none" stroke="black" cx="215.83" cy="-306" rx="134.8" ry="18"/>
<text text-anchor="middle" x="215.83" y="-301.8" font-family="Times,serif" font-size="14.00">book.BookController.getBookById</text>
</g>
<!-- book.BookController.getBookById&#45;&gt;book.BookService.getBookById -->
<g id="edge31" class="edge">
<title>book.BookController.getBookById&#45;&gt;book.BookService.getBookById</title>
<path fill="none" stroke="black" d="M215.83,-287.7C215.83,-279.98 215.83,-270.71 215.83,-262.11"/>
<polygon fill="black" stroke="black" points="219.33,-262.1 215.83,-252.1 212.33,-262.1 219.33,-262.1"/>
</g>
</g>
</svg>
