<?xml version="1.0" encoding="UTF-8" standalone="no"?>
<!DOCTYPE svg PUBLIC "-//W3C//DTD SVG 1.1//EN"
 "http://www.w3.org/Graphics/SVG/1.1/DTD/svg11.dtd">
<!-- Generated by graphviz version 2.43.0 (0)
 -->
<!-- Title: G Pages: 1 -->
<svg width="11932pt" height="188pt"
 viewBox="0.00 0.00 11932.30 188.00" xmlns="http://www.w3.org/2000/svg" xmlns:xlink="http://www.w3.org/1999/xlink">
<g id="graph0" class="graph" transform="scale(1 1) rotate(0) translate(4 184)">
<title>G</title>
<polygon fill="white" stroke="transparent" points="-4,4 -4,-184 11928.3,-184 11928.3,4 -4,4"/>
<!-- org.zoolu.sip.provider.SipProvider.sendMessage -->
<g id="node1" class="node">
<title>org.zoolu.sip.provider.SipProvider.sendMessage</title>
<ellipse fill="none" stroke="black" cx="4540.02" cy="-162" rx="181.32" ry="18"/>
<text text-anchor="middle" x="4540.02" y="-157.8" font-family="Times,serif" font-size="14.00">org.zoolu.sip.provider.SipProvider.sendMessage</text>
</g>
<!-- org.zoolu.sip.provider.SipProvider.sendMessage&#45;&gt;org.zoolu.sip.provider.SipProvider.sendMessage -->
<g id="edge27" class="edge">
<title>org.zoolu.sip.provider.SipProvider.sendMessage&#45;&gt;org.zoolu.sip.provider.SipProvider.sendMessage</title>
<path fill="none" stroke="black" d="M4670.13,-175.47C4708.95,-175.08 4739.18,-170.59 4739.18,-162 4739.18,-152.68 4703.61,-148.19 4660.09,-148.52"/>
<polygon fill="black" stroke="black" points="4670.08,-171.97 4660.09,-175.48 4670.09,-178.97 4670.08,-171.97"/>
</g>
<!-- local.net.KeepAliveSip.sendToken -->
<g id="node2" class="node">
<title>local.net.KeepAliveSip.sendToken</title>
<ellipse fill="none" stroke="black" cx="133.02" cy="-90" rx="133.03" ry="18"/>
<text text-anchor="middle" x="133.02" y="-85.8" font-family="Times,serif" font-size="14.00">local.net.KeepAliveSip.sendToken</text>
</g>
<!-- org.zoolu.sip.provider.SipProvider.sendMessage&#45;&gt;local.net.KeepAliveSip.sendToken -->
<g id="edge1" class="edge">
<title>org.zoolu.sip.provider.SipProvider.sendMessage&#45;&gt;local.net.KeepAliveSip.sendToken</title>
<path fill="none" stroke="black" d="M4348.73,-161.34C3629.04,-162.2 1083.94,-161.3 275.02,-108 258.29,-106.9 240.52,-105.2 223.41,-103.29"/>
<polygon fill="black" stroke="black" points="4348.94,-164.84 4358.93,-161.33 4348.93,-157.84 4348.94,-164.84"/>
</g>
<!-- local.server.Proxy.processRequestToRemoteUA -->
<g id="node3" class="node">
<title>local.server.Proxy.processRequestToRemoteUA</title>
<ellipse fill="none" stroke="black" cx="464.02" cy="-90" rx="180.19" ry="18"/>
<text text-anchor="middle" x="464.02" y="-85.8" font-family="Times,serif" font-size="14.00">local.server.Proxy.processRequestToRemoteUA</text>
</g>
<!-- org.zoolu.sip.provider.SipProvider.sendMessage&#45;&gt;local.server.Proxy.processRequestToRemoteUA -->
<g id="edge3" class="edge">
<title>org.zoolu.sip.provider.SipProvider.sendMessage&#45;&gt;local.server.Proxy.processRequestToRemoteUA</title>
<path fill="none" stroke="black" d="M4349.29,-160.35C3669.78,-157.7 1369.34,-145.98 635.02,-108 616.1,-107.02 596.14,-105.63 576.78,-104.05"/>
<polygon fill="black" stroke="black" points="4349.4,-163.85 4359.42,-160.39 4349.43,-156.85 4349.4,-163.85"/>
</g>
<!-- org.zoolu.sip.provider.SipProvider.sendMessage&#45;&gt;local.server.Proxy.processRequestToRemoteUA -->
<g id="edge5" class="edge">
<title>org.zoolu.sip.provider.SipProvider.sendMessage&#45;&gt;local.server.Proxy.processRequestToRemoteUA</title>
<path fill="none" stroke="black" d="M4349.01,-160.32C3671.48,-157.62 1384.74,-145.84 653.02,-108 631.22,-106.87 608.05,-105.19 585.67,-103.32"/>
<polygon fill="black" stroke="black" points="4349.34,-163.82 4359.36,-160.36 4349.37,-156.82 4349.34,-163.82"/>
</g>
<!-- org.zoolu.sip.provider.SipProvider.sendMessage&#45;&gt;local.server.Proxy.processRequestToRemoteUA -->
<g id="edge7" class="edge">
<title>org.zoolu.sip.provider.SipProvider.sendMessage&#45;&gt;local.server.Proxy.processRequestToRemoteUA</title>
<path fill="none" stroke="black" d="M4349.1,-160.29C3673.78,-157.54 1400.22,-145.71 671.02,-108 646.09,-106.71 619.37,-104.7 593.63,-102.5"/>
<polygon fill="black" stroke="black" points="4349.4,-163.8 4359.41,-160.34 4349.43,-156.8 4349.4,-163.8"/>
</g>
<!-- local.server.Proxy.processResponse -->
<g id="node5" class="node">
<title>local.server.Proxy.processResponse</title>
<ellipse fill="none" stroke="black" cx="798.02" cy="-90" rx="136.04" ry="18"/>
<text text-anchor="middle" x="798.02" y="-85.8" font-family="Times,serif" font-size="14.00">local.server.Proxy.processResponse</text>
</g>
<!-- org.zoolu.sip.provider.SipProvider.sendMessage&#45;&gt;local.server.Proxy.processResponse -->
<g id="edge9" class="edge">
<title>org.zoolu.sip.provider.SipProvider.sendMessage&#45;&gt;local.server.Proxy.processResponse</title>
<path fill="none" stroke="black" d="M4348.77,-160.76C3704.25,-159.54 1614.49,-152.19 943.02,-108 925.95,-106.88 907.8,-105.16 890.32,-103.25"/>
<polygon fill="black" stroke="black" points="4349.08,-164.26 4359.09,-160.78 4349.1,-157.26 4349.08,-164.26"/>
</g>
<!-- local.server.Proxy.processRequestToLocalUser -->
<g id="node7" class="node">
<title>local.server.Proxy.processRequestToLocalUser</title>
<ellipse fill="none" stroke="black" cx="1129.02" cy="-90" rx="176.79" ry="18"/>
<text text-anchor="middle" x="1129.02" y="-85.8" font-family="Times,serif" font-size="14.00">local.server.Proxy.processRequestToLocalUser</text>
</g>
<!-- org.zoolu.sip.provider.SipProvider.sendMessage&#45;&gt;local.server.Proxy.processRequestToLocalUser -->
<g id="edge11" class="edge">
<title>org.zoolu.sip.provider.SipProvider.sendMessage&#45;&gt;local.server.Proxy.processRequestToLocalUser</title>
<path fill="none" stroke="black" d="M4350.04,-159.8C3749.27,-155.63 1895.7,-140.23 1297.02,-108 1278.56,-107.01 1259.1,-105.61 1240.2,-104.05"/>
<polygon fill="black" stroke="black" points="4350.08,-163.3 4360.1,-159.87 4350.13,-156.3 4350.08,-163.3"/>
</g>
<!-- org.zoolu.sip.provider.SipProvider.sendMessage&#45;&gt;local.server.Proxy.processRequestToLocalUser -->
<g id="edge13" class="edge">
<title>org.zoolu.sip.provider.SipProvider.sendMessage&#45;&gt;local.server.Proxy.processRequestToLocalUser</title>
<path fill="none" stroke="black" d="M4349.99,-159.74C3751.69,-155.5 1911.18,-140.1 1315.02,-108 1293.65,-106.85 1270.93,-105.16 1248.99,-103.29"/>
<polygon fill="black" stroke="black" points="4349.98,-163.24 4360.01,-159.82 4350.03,-156.24 4349.98,-163.24"/>
</g>
<!-- org.zoolu.sip.provider.SipProvider.sendMessage&#45;&gt;local.server.Proxy.processRequestToLocalUser -->
<g id="edge14" class="edge">
<title>org.zoolu.sip.provider.SipProvider.sendMessage&#45;&gt;local.server.Proxy.processRequestToLocalUser</title>
<path fill="none" stroke="black" d="M4349.63,-159.69C3753.26,-155.36 1926.51,-139.95 1333.02,-108 1308.49,-106.68 1282.19,-104.65 1256.85,-102.45"/>
<polygon fill="black" stroke="black" points="4350.02,-163.19 4360.05,-159.76 4350.07,-156.19 4350.02,-163.19"/>
</g>
<!-- local.server.Proxy.processRequestToLocalServer -->
<g id="node9" class="node">
<title>local.server.Proxy.processRequestToLocalServer</title>
<ellipse fill="none" stroke="black" cx="1507.02" cy="-90" rx="183.06" ry="18"/>
<text text-anchor="middle" x="1507.02" y="-85.8" font-family="Times,serif" font-size="14.00">local.server.Proxy.processRequestToLocalServer</text>
</g>
<!-- org.zoolu.sip.provider.SipProvider.sendMessage&#45;&gt;local.server.Proxy.processRequestToLocalServer -->
<g id="edge15" class="edge">
<title>org.zoolu.sip.provider.SipProvider.sendMessage&#45;&gt;local.server.Proxy.processRequestToLocalServer</title>
<path fill="none" stroke="black" d="M4350.11,-159.19C3800.89,-153.66 2216.95,-135.73 1699.02,-108 1677.05,-106.82 1653.7,-105.13 1631.12,-103.26"/>
<polygon fill="black" stroke="black" points="4350.47,-162.69 4360.51,-159.29 4350.54,-155.69 4350.47,-162.69"/>
</g>
<!-- local.server.Redirect.processRequestToLocalUser -->
<g id="node10" class="node">
<title>local.server.Redirect.processRequestToLocalUser</title>
<ellipse fill="none" stroke="black" cx="1894.02" cy="-90" rx="186.1" ry="18"/>
<text text-anchor="middle" x="1894.02" y="-85.8" font-family="Times,serif" font-size="14.00">local.server.Redirect.processRequestToLocalUser</text>
</g>
<!-- org.zoolu.sip.provider.SipProvider.sendMessage&#45;&gt;local.server.Redirect.processRequestToLocalUser -->
<g id="edge16" class="edge">
<title>org.zoolu.sip.provider.SipProvider.sendMessage&#45;&gt;local.server.Redirect.processRequestToLocalUser</title>
<path fill="none" stroke="black" d="M4348.5,-161.09C3934.37,-160.38 2924.93,-153.68 2081.02,-108 2060.13,-106.87 2038.01,-105.31 2016.58,-103.58"/>
<polygon fill="black" stroke="black" points="4348.77,-164.59 4358.77,-161.11 4348.78,-157.59 4348.77,-164.59"/>
</g>
<!-- org.zoolu.sip.provider.SipProvider.sendMessage&#45;&gt;local.server.Redirect.processRequestToLocalUser -->
<g id="edge17" class="edge">
<title>org.zoolu.sip.provider.SipProvider.sendMessage&#45;&gt;local.server.Redirect.processRequestToLocalUser</title>
<path fill="none" stroke="black" d="M4348.87,-161.07C3937.26,-160.28 2936.61,-153.34 2099.02,-108 2075.06,-106.7 2049.49,-104.84 2024.81,-102.81"/>
<polygon fill="black" stroke="black" points="4349.08,-164.57 4359.09,-161.09 4349.09,-157.57 4349.08,-164.57"/>
</g>
<!-- local.server.Redirect.processRequestToRemoteUA -->
<g id="node11" class="node">
<title>local.server.Redirect.processRequestToRemoteUA</title>
<ellipse fill="none" stroke="black" cx="2288.02" cy="-90" rx="189.5" ry="18"/>
<text text-anchor="middle" x="2288.02" y="-85.8" font-family="Times,serif" font-size="14.00">local.server.Redirect.processRequestToRemoteUA</text>
</g>
<!-- org.zoolu.sip.provider.SipProvider.sendMessage&#45;&gt;local.server.Redirect.processRequestToRemoteUA -->
<g id="edge18" class="edge">
<title>org.zoolu.sip.provider.SipProvider.sendMessage&#45;&gt;local.server.Redirect.processRequestToRemoteUA</title>
<path fill="none" stroke="black" d="M4349.93,-159.86C3987.38,-156.85 3172.12,-146.07 2487.02,-108 2464.51,-106.75 2440.61,-105.04 2417.46,-103.18"/>
<polygon fill="black" stroke="black" points="4349.97,-163.36 4360,-159.94 4350.03,-156.36 4349.97,-163.36"/>
</g>
<!-- local.server.Registrar.processRequestToLocalUser -->
<g id="node12" class="node">
<title>local.server.Registrar.processRequestToLocalUser</title>
<ellipse fill="none" stroke="black" cx="2684.02" cy="-90" rx="188.05" ry="18"/>
<text text-anchor="middle" x="2684.02" y="-85.8" font-family="Times,serif" font-size="14.00">local.server.Registrar.processRequestToLocalUser</text>
</g>
<!-- org.zoolu.sip.provider.SipProvider.sendMessage&#45;&gt;local.server.Registrar.processRequestToLocalUser -->
<g id="edge19" class="edge">
<title>org.zoolu.sip.provider.SipProvider.sendMessage&#45;&gt;local.server.Registrar.processRequestToLocalUser</title>
<path fill="none" stroke="black" d="M4351.94,-158.27C4044.32,-153.08 3414.49,-139.35 2882.02,-108 2859.8,-106.69 2836.21,-104.96 2813.35,-103.11"/>
<polygon fill="black" stroke="black" points="4352.23,-161.78 4362.29,-158.45 4352.35,-154.78 4352.23,-161.78"/>
</g>
<!-- local.server.Registrar.processRequestToRemoteUA -->
<g id="node13" class="node">
<title>local.server.Registrar.processRequestToRemoteUA</title>
<ellipse fill="none" stroke="black" cx="3082.02" cy="-90" rx="191.45" ry="18"/>
<text text-anchor="middle" x="3082.02" y="-85.8" font-family="Times,serif" font-size="14.00">local.server.Registrar.processRequestToRemoteUA</text>
</g>
<!-- org.zoolu.sip.provider.SipProvider.sendMessage&#45;&gt;local.server.Registrar.processRequestToRemoteUA -->
<g id="edge20" class="edge">
<title>org.zoolu.sip.provider.SipProvider.sendMessage&#45;&gt;local.server.Registrar.processRequestToRemoteUA</title>
<path fill="none" stroke="black" d="M4358.81,-155.76C4114.4,-148.15 3665.59,-132.23 3283.02,-108 3260.91,-106.6 3237.46,-104.85 3214.67,-103.02"/>
<polygon fill="black" stroke="black" points="4358.75,-159.26 4368.86,-156.07 4358.97,-152.27 4358.75,-159.26"/>
</g>
<!-- local.server.Registrar.processRequestToLocalServer -->
<g id="node14" class="node">
<title>local.server.Registrar.processRequestToLocalServer</title>
<ellipse fill="none" stroke="black" cx="3486.02" cy="-90" rx="194.32" ry="18"/>
<text text-anchor="middle" x="3486.02" y="-85.8" font-family="Times,serif" font-size="14.00">local.server.Registrar.processRequestToLocalServer</text>
</g>
<!-- org.zoolu.sip.provider.SipProvider.sendMessage&#45;&gt;local.server.Registrar.processRequestToLocalServer -->
<g id="edge21" class="edge">
<title>org.zoolu.sip.provider.SipProvider.sendMessage&#45;&gt;local.server.Registrar.processRequestToLocalServer</title>
<path fill="none" stroke="black" d="M4376.1,-151.83C4204.68,-142 3927.86,-125.44 3689.02,-108 3667.5,-106.43 3644.71,-104.64 3622.48,-102.83"/>
<polygon fill="black" stroke="black" points="4376.03,-155.33 4386.22,-152.41 4376.43,-148.35 4376.03,-155.33"/>
</g>
<!-- local.server.ServerEngine.onReceivedMessage -->
<g id="node15" class="node">
<title>local.server.ServerEngine.onReceivedMessage</title>
<ellipse fill="none" stroke="black" cx="3874.02" cy="-90" rx="175.72" ry="18"/>
<text text-anchor="middle" x="3874.02" y="-85.8" font-family="Times,serif" font-size="14.00">local.server.ServerEngine.onReceivedMessage</text>
</g>
<!-- org.zoolu.sip.provider.SipProvider.sendMessage&#45;&gt;local.server.ServerEngine.onReceivedMessage -->
<g id="edge22" class="edge">
<title>org.zoolu.sip.provider.SipProvider.sendMessage&#45;&gt;local.server.ServerEngine.onReceivedMessage</title>
<path fill="none" stroke="black" d="M4410.47,-147.38C4289.13,-134.63 4109.33,-115.73 3991.91,-103.39"/>
<polygon fill="black" stroke="black" points="4410.25,-150.88 4420.57,-148.45 4410.99,-143.92 4410.25,-150.88"/>
</g>
<!-- org.bigbluebutton.voiceconf.sip.KeepAliveSip.sendToken -->
<g id="node16" class="node">
<title>org.bigbluebutton.voiceconf.sip.KeepAliveSip.sendToken</title>
<ellipse fill="none" stroke="black" cx="4283.02" cy="-90" rx="215.29" ry="18"/>
<text text-anchor="middle" x="4283.02" y="-85.8" font-family="Times,serif" font-size="14.00">org.bigbluebutton.voiceconf.sip.KeepAliveSip.sendToken</text>
</g>
<!-- org.zoolu.sip.provider.SipProvider.sendMessage&#45;&gt;org.bigbluebutton.voiceconf.sip.KeepAliveSip.sendToken -->
<g id="edge23" class="edge">
<title>org.zoolu.sip.provider.SipProvider.sendMessage&#45;&gt;org.bigbluebutton.voiceconf.sip.KeepAliveSip.sendToken</title>
<path fill="none" stroke="black" d="M4471.38,-142.31C4431.4,-131.41 4381.45,-117.81 4343.04,-107.35"/>
<polygon fill="black" stroke="black" points="4470.49,-145.69 4481.06,-144.94 4472.33,-138.94 4470.49,-145.69"/>
</g>
<!-- org.bigbluebutton.voiceconf.sip.OptionMethodListener.onReceivedMessage -->
<g id="node17" class="node">
<title>org.bigbluebutton.voiceconf.sip.OptionMethodListener.onReceivedMessage</title>
<ellipse fill="none" stroke="black" cx="4797.02" cy="-90" rx="280.22" ry="18"/>
<text text-anchor="middle" x="4797.02" y="-85.8" font-family="Times,serif" font-size="14.00">org.bigbluebutton.voiceconf.sip.OptionMethodListener.onReceivedMessage</text>
</g>
<!-- org.zoolu.sip.provider.SipProvider.sendMessage&#45;&gt;org.bigbluebutton.voiceconf.sip.OptionMethodListener.onReceivedMessage -->
<g id="edge24" class="edge">
<title>org.zoolu.sip.provider.SipProvider.sendMessage&#45;&gt;org.bigbluebutton.voiceconf.sip.OptionMethodListener.onReceivedMessage</title>
<path fill="none" stroke="black" d="M4608.83,-142.26C4648.48,-131.46 4697.87,-118.01 4736.1,-107.59"/>
<polygon fill="black" stroke="black" points="4607.71,-138.94 4598.98,-144.94 4609.55,-145.69 4607.71,-138.94"/>
</g>
<!-- org.red5.app.sip.OptionMethodListener.onReceivedMessage -->
<g id="node18" class="node">
<title>org.red5.app.sip.OptionMethodListener.onReceivedMessage</title>
<ellipse fill="none" stroke="black" cx="5320.02" cy="-90" rx="224.7" ry="18"/>
<text text-anchor="middle" x="5320.02" y="-85.8" font-family="Times,serif" font-size="14.00">org.red5.app.sip.OptionMethodListener.onReceivedMessage</text>
</g>
<!-- org.zoolu.sip.provider.SipProvider.sendMessage&#45;&gt;org.red5.app.sip.OptionMethodListener.onReceivedMessage -->
<g id="edge25" class="edge">
<title>org.zoolu.sip.provider.SipProvider.sendMessage&#45;&gt;org.red5.app.sip.OptionMethodListener.onReceivedMessage</title>
<path fill="none" stroke="black" d="M4679.66,-148.47C4819.87,-135.89 5034.87,-116.59 5176.45,-103.88"/>
<polygon fill="black" stroke="black" points="4679.34,-144.98 4669.69,-149.36 4679.97,-151.95 4679.34,-144.98"/>
</g>
<!-- org.zoolu.sip.provider.SipInterface.sendMessage -->
<g id="node19" class="node">
<title>org.zoolu.sip.provider.SipInterface.sendMessage</title>
<ellipse fill="none" stroke="black" cx="5745.02" cy="-90" rx="182.7" ry="18"/>
<text text-anchor="middle" x="5745.02" y="-85.8" font-family="Times,serif" font-size="14.00">org.zoolu.sip.provider.SipInterface.sendMessage</text>
</g>
<!-- org.zoolu.sip.provider.SipProvider.sendMessage&#45;&gt;org.zoolu.sip.provider.SipInterface.sendMessage -->
<g id="edge26" class="edge">
<title>org.zoolu.sip.provider.SipProvider.sendMessage&#45;&gt;org.zoolu.sip.provider.SipInterface.sendMessage</title>
<path fill="none" stroke="black" d="M4714.01,-153.84C4916.08,-145.08 5259.4,-128.8 5554.02,-108 5574.69,-106.54 5596.6,-104.79 5617.93,-102.96"/>
<polygon fill="black" stroke="black" points="4713.74,-150.35 4703.9,-154.28 4714.04,-157.34 4713.74,-150.35"/>
</g>
<!-- org.zoolu.sip.transaction.AckTransactionClient.request -->
<g id="node20" class="node">
<title>org.zoolu.sip.transaction.AckTransactionClient.request</title>
<ellipse fill="none" stroke="black" cx="6150.02" cy="-90" rx="204.77" ry="18"/>
<text text-anchor="middle" x="6150.02" y="-85.8" font-family="Times,serif" font-size="14.00">org.zoolu.sip.transaction.AckTransactionClient.request</text>
</g>
<!-- org.zoolu.sip.provider.SipProvider.sendMessage&#45;&gt;org.zoolu.sip.transaction.AckTransactionClient.request -->
<g id="edge28" class="edge">
<title>org.zoolu.sip.provider.SipProvider.sendMessage&#45;&gt;org.zoolu.sip.transaction.AckTransactionClient.request</title>
<path fill="none" stroke="black" d="M4723.73,-156.47C4990.95,-149.33 5502.4,-133.58 5937.02,-108 5960.35,-106.63 5985.1,-104.9 6009.15,-103.08"/>
<polygon fill="black" stroke="black" points="4723.45,-152.98 4713.54,-156.74 4723.63,-159.98 4723.45,-152.98"/>
</g>
<!-- org.zoolu.sip.transaction.AckTransactionServer.respond -->
<g id="node21" class="node">
<title>org.zoolu.sip.transaction.AckTransactionServer.respond</title>
<ellipse fill="none" stroke="black" cx="6581.02" cy="-90" rx="208.15" ry="18"/>
<text text-anchor="middle" x="6581.02" y="-85.8" font-family="Times,serif" font-size="14.00">org.zoolu.sip.transaction.AckTransactionServer.respond</text>
</g>
<!-- org.zoolu.sip.provider.SipProvider.sendMessage&#45;&gt;org.zoolu.sip.transaction.AckTransactionServer.respond -->
<g id="edge29" class="edge">
<title>org.zoolu.sip.provider.SipProvider.sendMessage&#45;&gt;org.zoolu.sip.transaction.AckTransactionServer.respond</title>
<path fill="none" stroke="black" d="M4728.63,-158.57C5059.81,-153.63 5767.36,-140.02 6364.02,-108 6388.17,-106.7 6413.81,-104.99 6438.68,-103.16"/>
<polygon fill="black" stroke="black" points="4728.41,-155.07 4718.46,-158.72 4728.51,-162.07 4728.41,-155.07"/>
</g>
<!-- org.zoolu.sip.transaction.AckTransactionServer.onTimeout -->
<g id="node22" class="node">
<title>org.zoolu.sip.transaction.AckTransactionServer.onTimeout</title>
<ellipse fill="none" stroke="black" cx="7026.02" cy="-90" rx="218.65" ry="18"/>
<text text-anchor="middle" x="7026.02" y="-85.8" font-family="Times,serif" font-size="14.00">org.zoolu.sip.transaction.AckTransactionServer.onTimeout</text>
</g>
<!-- org.zoolu.sip.provider.SipProvider.sendMessage&#45;&gt;org.zoolu.sip.transaction.AckTransactionServer.onTimeout -->
<g id="edge30" class="edge">
<title>org.zoolu.sip.provider.SipProvider.sendMessage&#45;&gt;org.zoolu.sip.transaction.AckTransactionServer.onTimeout</title>
<path fill="none" stroke="black" d="M4730.35,-159.8C5119.11,-156.64 6032.27,-145.51 6798.02,-108 6823.59,-106.75 6850.75,-105.05 6877.07,-103.2"/>
<polygon fill="black" stroke="black" points="4730.11,-156.31 4720.14,-159.89 4730.17,-163.31 4730.11,-156.31"/>
</g>
<!-- org.zoolu.sip.transaction.InviteTransactionClient.request -->
<g id="node23" class="node">
<title>org.zoolu.sip.transaction.InviteTransactionClient.request</title>
<ellipse fill="none" stroke="black" cx="7474.02" cy="-90" rx="210.56" ry="18"/>
<text text-anchor="middle" x="7474.02" y="-85.8" font-family="Times,serif" font-size="14.00">org.zoolu.sip.transaction.InviteTransactionClient.request</text>
</g>
<!-- org.zoolu.sip.provider.SipProvider.sendMessage&#45;&gt;org.zoolu.sip.transaction.InviteTransactionClient.request -->
<g id="edge31" class="edge">
<title>org.zoolu.sip.provider.SipProvider.sendMessage&#45;&gt;org.zoolu.sip.transaction.InviteTransactionClient.request</title>
<path fill="none" stroke="black" d="M4731.21,-161.05C5174.74,-160.33 6308.02,-153.75 7254.02,-108 7278.98,-106.79 7305.52,-105.1 7331.19,-103.24"/>
<polygon fill="black" stroke="black" points="4731.17,-157.55 4721.18,-161.06 4731.18,-164.55 4731.17,-157.55"/>
</g>
<!-- org.zoolu.sip.transaction.InviteTransactionClient.onReceivedMessage -->
<g id="node24" class="node">
<title>org.zoolu.sip.transaction.InviteTransactionClient.onReceivedMessage</title>
<ellipse fill="none" stroke="black" cx="7961.02" cy="-90" rx="257.85" ry="18"/>
<text text-anchor="middle" x="7961.02" y="-85.8" font-family="Times,serif" font-size="14.00">org.zoolu.sip.transaction.InviteTransactionClient.onReceivedMessage</text>
</g>
<!-- org.zoolu.sip.provider.SipProvider.sendMessage&#45;&gt;org.zoolu.sip.transaction.InviteTransactionClient.onReceivedMessage -->
<g id="edge32" class="edge">
<title>org.zoolu.sip.provider.SipProvider.sendMessage&#45;&gt;org.zoolu.sip.transaction.InviteTransactionClient.onReceivedMessage</title>
<path fill="none" stroke="black" d="M4731.1,-160.89C5221.74,-159.93 6565.82,-153.01 7685.02,-108 7716.46,-106.74 7749.96,-104.95 7782.39,-103.01"/>
<polygon fill="black" stroke="black" points="4731.08,-157.39 4721.09,-160.91 4731.1,-164.39 4731.08,-157.39"/>
</g>
<!-- org.zoolu.sip.provider.SipProvider.sendMessage&#45;&gt;org.zoolu.sip.transaction.InviteTransactionClient.onReceivedMessage -->
<g id="edge33" class="edge">
<title>org.zoolu.sip.provider.SipProvider.sendMessage&#45;&gt;org.zoolu.sip.transaction.InviteTransactionClient.onReceivedMessage</title>
<path fill="none" stroke="black" d="M4730.91,-160.91C5223.42,-160.01 6577.03,-153.28 7703.02,-108 7731.44,-106.86 7761.55,-105.29 7790.79,-103.56"/>
<polygon fill="black" stroke="black" points="4730.86,-157.41 4720.87,-160.93 4730.87,-164.41 4730.86,-157.41"/>
</g>
<!-- org.zoolu.sip.transaction.InviteTransactionClient.onTimeout -->
<g id="node25" class="node">
<title>org.zoolu.sip.transaction.InviteTransactionClient.onTimeout</title>
<ellipse fill="none" stroke="black" cx="8461.02" cy="-90" rx="223.98" ry="18"/>
<text text-anchor="middle" x="8461.02" y="-85.8" font-family="Times,serif" font-size="14.00">org.zoolu.sip.transaction.InviteTransactionClient.onTimeout</text>
</g>
<!-- org.zoolu.sip.provider.SipProvider.sendMessage&#45;&gt;org.zoolu.sip.transaction.InviteTransactionClient.onTimeout -->
<g id="edge34" class="edge">
<title>org.zoolu.sip.provider.SipProvider.sendMessage&#45;&gt;org.zoolu.sip.transaction.InviteTransactionClient.onTimeout</title>
<path fill="none" stroke="black" d="M4730.36,-159.74C5384.29,-155.17 7536.74,-138.16 8228.02,-108 8254.56,-106.84 8282.77,-105.16 8310.06,-103.31"/>
<polygon fill="black" stroke="black" points="4729.87,-156.24 4719.89,-159.81 4729.92,-163.24 4729.87,-156.24"/>
</g>
<!-- org.zoolu.sip.transaction.InviteTransactionServer.onTimeout -->
<g id="node26" class="node">
<title>org.zoolu.sip.transaction.InviteTransactionServer.onTimeout</title>
<ellipse fill="none" stroke="black" cx="8927.02" cy="-90" rx="224.94" ry="18"/>
<text text-anchor="middle" x="8927.02" y="-85.8" font-family="Times,serif" font-size="14.00">org.zoolu.sip.transaction.InviteTransactionServer.onTimeout</text>
</g>
<!-- org.zoolu.sip.provider.SipProvider.sendMessage&#45;&gt;org.zoolu.sip.transaction.InviteTransactionServer.onTimeout -->
<g id="edge35" class="edge">
<title>org.zoolu.sip.provider.SipProvider.sendMessage&#45;&gt;org.zoolu.sip.transaction.InviteTransactionServer.onTimeout</title>
<path fill="none" stroke="black" d="M4730.47,-160.09C5436.85,-156.49 7906.72,-141.71 8694.02,-108 8720.56,-106.86 8748.77,-105.2 8776.06,-103.34"/>
<polygon fill="black" stroke="black" points="4730.43,-156.59 4720.45,-160.14 4730.47,-163.59 4730.43,-156.59"/>
</g>
<!-- org.zoolu.sip.transaction.InviteTransactionServer.respondWith -->
<g id="node27" class="node">
<title>org.zoolu.sip.transaction.InviteTransactionServer.respondWith</title>
<ellipse fill="none" stroke="black" cx="9401.02" cy="-90" rx="231.6" ry="18"/>
<text text-anchor="middle" x="9401.02" y="-85.8" font-family="Times,serif" font-size="14.00">org.zoolu.sip.transaction.InviteTransactionServer.respondWith</text>
</g>
<!-- org.zoolu.sip.provider.SipProvider.sendMessage&#45;&gt;org.zoolu.sip.transaction.InviteTransactionServer.respondWith -->
<g id="edge36" class="edge">
<title>org.zoolu.sip.provider.SipProvider.sendMessage&#45;&gt;org.zoolu.sip.transaction.InviteTransactionServer.respondWith</title>
<path fill="none" stroke="black" d="M4730.65,-160.32C5486.87,-157.4 8277.09,-144.34 9161.02,-108 9188.35,-106.88 9217.41,-105.21 9245.52,-103.36"/>
<polygon fill="black" stroke="black" points="4730.47,-156.82 4720.49,-160.36 4730.5,-163.82 4730.47,-156.82"/>
</g>
<!-- org.zoolu.sip.transaction.InviteTransactionServer.onReceivedMessage -->
<g id="node28" class="node">
<title>org.zoolu.sip.transaction.InviteTransactionServer.onReceivedMessage</title>
<ellipse fill="none" stroke="black" cx="9909.02" cy="-90" rx="258.81" ry="18"/>
<text text-anchor="middle" x="9909.02" y="-85.8" font-family="Times,serif" font-size="14.00">org.zoolu.sip.transaction.InviteTransactionServer.onReceivedMessage</text>
</g>
<!-- org.zoolu.sip.provider.SipProvider.sendMessage&#45;&gt;org.zoolu.sip.transaction.InviteTransactionServer.onReceivedMessage -->
<g id="edge37" class="edge">
<title>org.zoolu.sip.provider.SipProvider.sendMessage&#45;&gt;org.zoolu.sip.transaction.InviteTransactionServer.onReceivedMessage</title>
<path fill="none" stroke="black" d="M4730.87,-160.38C5535.93,-157.55 8658.13,-144.41 9642.02,-108 9672.3,-106.88 9704.5,-105.23 9735.66,-103.38"/>
<polygon fill="black" stroke="black" points="4730.62,-156.88 4720.64,-160.41 4730.65,-163.88 4730.62,-156.88"/>
</g>
<!-- org.zoolu.sip.transaction.TransactionClient.request -->
<g id="node29" class="node">
<title>org.zoolu.sip.transaction.TransactionClient.request</title>
<ellipse fill="none" stroke="black" cx="10376.02" cy="-90" rx="190.3" ry="18"/>
<text text-anchor="middle" x="10376.02" y="-85.8" font-family="Times,serif" font-size="14.00">org.zoolu.sip.transaction.TransactionClient.request</text>
</g>
<!-- org.zoolu.sip.provider.SipProvider.sendMessage&#45;&gt;org.zoolu.sip.transaction.TransactionClient.request -->
<g id="edge38" class="edge">
<title>org.zoolu.sip.provider.SipProvider.sendMessage&#45;&gt;org.zoolu.sip.transaction.TransactionClient.request</title>
<path fill="none" stroke="black" d="M4731.26,-161.15C5588.43,-161.54 9082.26,-159.83 10177.02,-108 10200.05,-106.91 10224.54,-105.24 10248.19,-103.36"/>
<polygon fill="black" stroke="black" points="4730.99,-157.65 4720.99,-161.15 4730.99,-164.65 4730.99,-157.65"/>
</g>
<!-- org.zoolu.sip.transaction.TransactionClient.onTimeout -->
<g id="node30" class="node">
<title>org.zoolu.sip.transaction.TransactionClient.onTimeout</title>
<ellipse fill="none" stroke="black" cx="10787.02" cy="-90" rx="203.23" ry="18"/>
<text text-anchor="middle" x="10787.02" y="-85.8" font-family="Times,serif" font-size="14.00">org.zoolu.sip.transaction.TransactionClient.onTimeout</text>
</g>
<!-- org.zoolu.sip.provider.SipProvider.sendMessage&#45;&gt;org.zoolu.sip.transaction.TransactionClient.onTimeout -->
<g id="edge39" class="edge">
<title>org.zoolu.sip.provider.SipProvider.sendMessage&#45;&gt;org.zoolu.sip.transaction.TransactionClient.onTimeout</title>
<path fill="none" stroke="black" d="M4731.28,-161.16C5625.16,-161.61 9396.99,-160.34 10575.02,-108 10599.55,-106.91 10625.64,-105.24 10650.82,-103.36"/>
<polygon fill="black" stroke="black" points="4731.22,-157.66 4721.22,-161.15 4731.22,-164.66 4731.22,-157.66"/>
</g>
<!-- org.zoolu.sip.transaction.TransactionServer.respondWith -->
<g id="node31" class="node">
<title>org.zoolu.sip.transaction.TransactionServer.respondWith</title>
<ellipse fill="none" stroke="black" cx="11219.02" cy="-90" rx="210.85" ry="18"/>
<text text-anchor="middle" x="11219.02" y="-85.8" font-family="Times,serif" font-size="14.00">org.zoolu.sip.transaction.TransactionServer.respondWith</text>
</g>
<!-- org.zoolu.sip.provider.SipProvider.sendMessage&#45;&gt;org.zoolu.sip.transaction.TransactionServer.respondWith -->
<g id="edge40" class="edge">
<title>org.zoolu.sip.provider.SipProvider.sendMessage&#45;&gt;org.zoolu.sip.transaction.TransactionServer.respondWith</title>
<path fill="none" stroke="black" d="M4731.47,-161.21C5663.47,-161.97 9732.23,-162.08 10999.02,-108 11024.47,-106.91 11051.54,-105.24 11077.68,-103.37"/>
<polygon fill="black" stroke="black" points="4731.32,-157.71 4721.32,-161.2 4731.32,-164.71 4731.32,-157.71"/>
</g>
<!-- org.zoolu.sip.transaction.TransactionServer.onReceivedMessage -->
<g id="node32" class="node">
<title>org.zoolu.sip.transaction.TransactionServer.onReceivedMessage</title>
<ellipse fill="none" stroke="black" cx="11686.02" cy="-90" rx="238.06" ry="18"/>
<text text-anchor="middle" x="11686.02" y="-85.8" font-family="Times,serif" font-size="14.00">org.zoolu.sip.transaction.TransactionServer.onReceivedMessage</text>
</g>
<!-- org.zoolu.sip.provider.SipProvider.sendMessage&#45;&gt;org.zoolu.sip.transaction.TransactionServer.onReceivedMessage -->
<g id="edge41" class="edge">
<title>org.zoolu.sip.provider.SipProvider.sendMessage&#45;&gt;org.zoolu.sip.transaction.TransactionServer.onReceivedMessage</title>
<path fill="none" stroke="black" d="M4731.18,-161.11C5700.52,-161.44 10079.56,-159.96 11439.02,-108 11467.37,-106.92 11497.51,-105.26 11526.65,-103.4"/>
<polygon fill="black" stroke="black" points="4730.98,-157.61 4720.98,-161.11 4730.98,-164.61 4730.98,-157.61"/>
</g>
<!-- local.server.StatefulProxy.processRequestToRemoteUA -->
<g id="node4" class="node">
<title>local.server.StatefulProxy.processRequestToRemoteUA</title>
<ellipse fill="none" stroke="black" cx="436.02" cy="-18" rx="207.71" ry="18"/>
<text text-anchor="middle" x="436.02" y="-13.8" font-family="Times,serif" font-size="14.00">local.server.StatefulProxy.processRequestToRemoteUA</text>
</g>
<!-- local.server.Proxy.processRequestToRemoteUA&#45;&gt;local.server.StatefulProxy.processRequestToRemoteUA -->
<g id="edge2" class="edge">
<title>local.server.Proxy.processRequestToRemoteUA&#45;&gt;local.server.StatefulProxy.processRequestToRemoteUA</title>
<path fill="none" stroke="black" d="M440.59,-63.14C436.17,-54.19 432.67,-44.37 431.1,-36.28"/>
<polygon fill="black" stroke="black" points="437.6,-64.97 445.48,-72.05 443.74,-61.6 437.6,-64.97"/>
</g>
<!-- local.server.Proxy.processRequestToRemoteUA&#45;&gt;local.server.StatefulProxy.processRequestToRemoteUA -->
<g id="edge4" class="edge">
<title>local.server.Proxy.processRequestToRemoteUA&#45;&gt;local.server.StatefulProxy.processRequestToRemoteUA</title>
<path fill="none" stroke="black" d="M453.31,-62.23C449.8,-53.46 446,-43.96 442.86,-36.1"/>
<polygon fill="black" stroke="black" points="450.13,-63.71 457.1,-71.7 456.63,-61.11 450.13,-63.71"/>
</g>
<!-- local.server.Proxy.processRequestToRemoteUA&#45;&gt;local.server.StatefulProxy.processRequestToRemoteUA -->
<g id="edge6" class="edge">
<title>local.server.Proxy.processRequestToRemoteUA&#45;&gt;local.server.StatefulProxy.processRequestToRemoteUA</title>
<path fill="none" stroke="black" d="M466.38,-61.95C463.6,-53.26 459.39,-43.88 454.65,-36.1"/>
<polygon fill="black" stroke="black" points="463.01,-62.91 468.93,-71.7 469.79,-61.14 463.01,-62.91"/>
</g>
<!-- local.server.StatefulProxy.processResponse -->
<g id="node6" class="node">
<title>local.server.StatefulProxy.processResponse</title>
<ellipse fill="none" stroke="black" cx="825.02" cy="-18" rx="163.55" ry="18"/>
<text text-anchor="middle" x="825.02" y="-13.8" font-family="Times,serif" font-size="14.00">local.server.StatefulProxy.processResponse</text>
</g>
<!-- local.server.Proxy.processResponse&#45;&gt;local.server.StatefulProxy.processResponse -->
<g id="edge8" class="edge">
<title>local.server.Proxy.processResponse&#45;&gt;local.server.StatefulProxy.processResponse</title>
<path fill="none" stroke="black" d="M808.34,-62.23C811.72,-53.46 815.39,-43.96 818.42,-36.1"/>
<polygon fill="black" stroke="black" points="805.02,-61.11 804.69,-71.7 811.56,-63.63 805.02,-61.11"/>
</g>
<!-- local.server.StatefulProxy.processRequestToLocalUser -->
<g id="node8" class="node">
<title>local.server.StatefulProxy.processRequestToLocalUser</title>
<ellipse fill="none" stroke="black" cx="1211.02" cy="-18" rx="204.31" ry="18"/>
<text text-anchor="middle" x="1211.02" y="-13.8" font-family="Times,serif" font-size="14.00">local.server.StatefulProxy.processRequestToLocalUser</text>
</g>
<!-- local.server.Proxy.processRequestToLocalUser&#45;&gt;local.server.StatefulProxy.processRequestToLocalUser -->
<g id="edge10" class="edge">
<title>local.server.Proxy.processRequestToLocalUser&#45;&gt;local.server.StatefulProxy.processRequestToLocalUser</title>
<path fill="none" stroke="black" d="M1150.63,-65.05C1161.26,-55.51 1174.05,-44.75 1185.18,-36.03"/>
<polygon fill="black" stroke="black" points="1148,-62.72 1142.99,-72.05 1152.73,-67.88 1148,-62.72"/>
</g>
<!-- local.server.Proxy.processRequestToLocalUser&#45;&gt;local.server.StatefulProxy.processRequestToLocalUser -->
<g id="edge12" class="edge">
<title>local.server.Proxy.processRequestToLocalUser&#45;&gt;local.server.StatefulProxy.processRequestToLocalUser</title>
<path fill="none" stroke="black" d="M1162.82,-65.61C1174.75,-55.93 1187.48,-44.92 1196.95,-36.03"/>
<polygon fill="black" stroke="black" points="1160.38,-63.08 1154.75,-72.05 1164.75,-68.56 1160.38,-63.08"/>
</g>
</g>
</svg>
