<?xml version="1.0" encoding="UTF-8" standalone="no"?>
<!DOCTYPE svg PUBLIC "-//W3C//DTD SVG 1.1//EN"
 "http://www.w3.org/Graphics/SVG/1.1/DTD/svg11.dtd">
<!-- Generated by graphviz version 2.43.0 (0)
 -->
<!-- Title: G Pages: 1 -->
<svg width="1950pt" height="260pt"
 viewBox="0.00 0.00 1950.22 260.00" xmlns="http://www.w3.org/2000/svg" xmlns:xlink="http://www.w3.org/1999/xlink">
<g id="graph0" class="graph" transform="scale(1 1) rotate(0) translate(4 256)">
<title>G</title>
<polygon fill="white" stroke="transparent" points="-4,4 -4,-256 1946.22,-256 1946.22,4 -4,4"/>
<!-- org.bigbluebutton.transcode.core.VideoTranscoder.start -->
<g id="node1" class="node">
<title>org.bigbluebutton.transcode.core.VideoTranscoder.start</title>
<ellipse fill="none" stroke="black" cx="228.41" cy="-90" rx="206.13" ry="18"/>
<text text-anchor="middle" x="228.41" y="-85.8" font-family="Times,serif" font-size="14.00">org.bigbluebutton.transcode.core.VideoTranscoder.start</text>
</g>
<!-- org.bigbluebutton.transcode.core.VideoTranscoder.onReceive -->
<g id="node2" class="node">
<title>org.bigbluebutton.transcode.core.VideoTranscoder.onReceive</title>
<ellipse fill="none" stroke="black" cx="228.41" cy="-18" rx="228.33" ry="18"/>
<text text-anchor="middle" x="228.41" y="-13.8" font-family="Times,serif" font-size="14.00">org.bigbluebutton.transcode.core.VideoTranscoder.onReceive</text>
</g>
<!-- org.bigbluebutton.transcode.core.VideoTranscoder.start&#45;&gt;org.bigbluebutton.transcode.core.VideoTranscoder.onReceive -->
<g id="edge1" class="edge">
<title>org.bigbluebutton.transcode.core.VideoTranscoder.start&#45;&gt;org.bigbluebutton.transcode.core.VideoTranscoder.onReceive</title>
<path fill="none" stroke="black" d="M221.81,-61.67C221.48,-53.05 221.71,-43.79 222.52,-36.1"/>
<polygon fill="black" stroke="black" points="218.32,-61.96 222.5,-71.7 225.3,-61.48 218.32,-61.96"/>
</g>
<!-- org.bigbluebutton.transcode.core.VideoTranscoder.start&#45;&gt;org.bigbluebutton.transcode.core.VideoTranscoder.onReceive -->
<g id="edge8" class="edge">
<title>org.bigbluebutton.transcode.core.VideoTranscoder.start&#45;&gt;org.bigbluebutton.transcode.core.VideoTranscoder.onReceive</title>
<path fill="none" stroke="black" d="M235.02,-61.67C235.35,-53.05 235.11,-43.79 234.31,-36.1"/>
<polygon fill="black" stroke="black" points="231.52,-61.48 234.33,-71.7 238.5,-61.96 231.52,-61.48"/>
</g>
<!-- org.bigbluebutton.transcode.core.VideoTranscoder.startTranscoder -->
<g id="node3" class="node">
<title>org.bigbluebutton.transcode.core.VideoTranscoder.startTranscoder</title>
<ellipse fill="none" stroke="black" cx="666.41" cy="-162" rx="245.57" ry="18"/>
<text text-anchor="middle" x="666.41" y="-157.8" font-family="Times,serif" font-size="14.00">org.bigbluebutton.transcode.core.VideoTranscoder.startTranscoder</text>
</g>
<!-- org.bigbluebutton.transcode.core.VideoTranscoder.startTranscoder&#45;&gt;org.bigbluebutton.transcode.core.VideoTranscoder.start -->
<g id="edge2" class="edge">
<title>org.bigbluebutton.transcode.core.VideoTranscoder.startTranscoder&#45;&gt;org.bigbluebutton.transcode.core.VideoTranscoder.start</title>
<path fill="none" stroke="black" d="M554.12,-143.99C480.81,-132.47 386.43,-117.38 318.13,-106.25"/>
<polygon fill="black" stroke="black" points="553.89,-147.5 564.32,-145.59 554.98,-140.59 553.89,-147.5"/>
</g>
<!-- org.bigbluebutton.transcode.core.VideoTranscoder.startTranscoder&#45;&gt;org.bigbluebutton.transcode.core.VideoTranscoder.start -->
<g id="edge9" class="edge">
<title>org.bigbluebutton.transcode.core.VideoTranscoder.startTranscoder&#45;&gt;org.bigbluebutton.transcode.core.VideoTranscoder.start</title>
<path fill="none" stroke="black" d="M563.94,-143.68C492.5,-132.07 397.76,-116.94 327.15,-105.88"/>
<polygon fill="black" stroke="black" points="563.43,-147.14 573.86,-145.29 564.55,-140.23 563.43,-147.14"/>
</g>
<!-- org.bigbluebutton.transcode.core.VideoTranscoder.update -->
<g id="node4" class="node">
<title>org.bigbluebutton.transcode.core.VideoTranscoder.update</title>
<ellipse fill="none" stroke="black" cx="1112.41" cy="-90" rx="214.83" ry="18"/>
<text text-anchor="middle" x="1112.41" y="-85.8" font-family="Times,serif" font-size="14.00">org.bigbluebutton.transcode.core.VideoTranscoder.update</text>
</g>
<!-- org.bigbluebutton.transcode.core.VideoTranscoder.startTranscoder&#45;&gt;org.bigbluebutton.transcode.core.VideoTranscoder.update -->
<g id="edge4" class="edge">
<title>org.bigbluebutton.transcode.core.VideoTranscoder.startTranscoder&#45;&gt;org.bigbluebutton.transcode.core.VideoTranscoder.update</title>
<path fill="none" stroke="black" d="M770.58,-143.72C843.21,-132.14 939.56,-117.03 1011.47,-105.96"/>
<polygon fill="black" stroke="black" points="769.81,-140.3 760.49,-145.33 770.92,-147.21 769.81,-140.3"/>
</g>
<!-- org.bigbluebutton.transcode.core.VideoTranscoder.startTranscoder&#45;&gt;org.bigbluebutton.transcode.core.VideoTranscoder.update -->
<g id="edge10" class="edge">
<title>org.bigbluebutton.transcode.core.VideoTranscoder.startTranscoder&#45;&gt;org.bigbluebutton.transcode.core.VideoTranscoder.update</title>
<path fill="none" stroke="black" d="M779.89,-144.11C854.45,-132.6 950.69,-117.49 1020.46,-106.33"/>
<polygon fill="black" stroke="black" points="779.34,-140.65 769.99,-145.64 780.41,-147.57 779.34,-140.65"/>
</g>
<!-- org.bigbluebutton.transcode.core.VideoTranscoder.restart -->
<g id="node6" class="node">
<title>org.bigbluebutton.transcode.core.VideoTranscoder.restart</title>
<ellipse fill="none" stroke="black" cx="666.41" cy="-90" rx="213.37" ry="18"/>
<text text-anchor="middle" x="666.41" y="-85.8" font-family="Times,serif" font-size="14.00">org.bigbluebutton.transcode.core.VideoTranscoder.restart</text>
</g>
<!-- org.bigbluebutton.transcode.core.VideoTranscoder.startTranscoder&#45;&gt;org.bigbluebutton.transcode.core.VideoTranscoder.restart -->
<g id="edge6" class="edge">
<title>org.bigbluebutton.transcode.core.VideoTranscoder.startTranscoder&#45;&gt;org.bigbluebutton.transcode.core.VideoTranscoder.restart</title>
<path fill="none" stroke="black" d="M659.81,-133.67C659.48,-125.05 659.71,-115.79 660.52,-108.1"/>
<polygon fill="black" stroke="black" points="656.32,-133.96 660.5,-143.7 663.3,-133.48 656.32,-133.96"/>
</g>
<!-- org.bigbluebutton.transcode.core.VideoTranscoder.startTranscoder&#45;&gt;org.bigbluebutton.transcode.core.VideoTranscoder.restart -->
<g id="edge11" class="edge">
<title>org.bigbluebutton.transcode.core.VideoTranscoder.startTranscoder&#45;&gt;org.bigbluebutton.transcode.core.VideoTranscoder.restart</title>
<path fill="none" stroke="black" d="M673.02,-133.67C673.35,-125.05 673.11,-115.79 672.31,-108.1"/>
<polygon fill="black" stroke="black" points="669.52,-133.48 672.33,-143.7 676.5,-133.96 669.52,-133.48"/>
</g>
<!-- org.bigbluebutton.transcode.core.VideoTranscoder.handleProcessFinishedWithSuccess -->
<g id="node5" class="node">
<title>org.bigbluebutton.transcode.core.VideoTranscoder.handleProcessFinishedWithSuccess</title>
<ellipse fill="none" stroke="black" cx="1112.41" cy="-18" rx="317.46" ry="18"/>
<text text-anchor="middle" x="1112.41" y="-13.8" font-family="Times,serif" font-size="14.00">org.bigbluebutton.transcode.core.VideoTranscoder.handleProcessFinishedWithSuccess</text>
</g>
<!-- org.bigbluebutton.transcode.core.VideoTranscoder.update&#45;&gt;org.bigbluebutton.transcode.core.VideoTranscoder.handleProcessFinishedWithSuccess -->
<g id="edge3" class="edge">
<title>org.bigbluebutton.transcode.core.VideoTranscoder.update&#45;&gt;org.bigbluebutton.transcode.core.VideoTranscoder.handleProcessFinishedWithSuccess</title>
<path fill="none" stroke="black" d="M1112.41,-61.67C1112.41,-53.05 1112.41,-43.79 1112.41,-36.1"/>
<polygon fill="black" stroke="black" points="1108.91,-61.7 1112.41,-71.7 1115.91,-61.7 1108.91,-61.7"/>
</g>
<!-- org.bigbluebutton.transcode.core.VideoTranscoder.restart&#45;&gt;org.bigbluebutton.transcode.core.VideoTranscoder.onReceive -->
<g id="edge5" class="edge">
<title>org.bigbluebutton.transcode.core.VideoTranscoder.restart&#45;&gt;org.bigbluebutton.transcode.core.VideoTranscoder.onReceive</title>
<path fill="none" stroke="black" d="M561.63,-72.25C489.58,-60.74 394.63,-45.56 324.52,-34.36"/>
<polygon fill="black" stroke="black" points="561.22,-75.73 571.64,-73.85 562.32,-68.82 561.22,-75.73"/>
</g>
<!-- org.bigbluebutton.transcode.core.ffmpeg.FFmpegCommand.getFFmpegCommand -->
<g id="node7" class="node">
<title>org.bigbluebutton.transcode.core.ffmpeg.FFmpegCommand.getFFmpegCommand</title>
<ellipse fill="none" stroke="black" cx="666.41" cy="-234" rx="302.16" ry="18"/>
<text text-anchor="middle" x="666.41" y="-229.8" font-family="Times,serif" font-size="14.00">org.bigbluebutton.transcode.core.ffmpeg.FFmpegCommand.getFFmpegCommand</text>
</g>
<!-- org.bigbluebutton.transcode.core.ffmpeg.FFmpegCommand.getFFmpegCommand&#45;&gt;org.bigbluebutton.transcode.core.VideoTranscoder.startTranscoder -->
<g id="edge7" class="edge">
<title>org.bigbluebutton.transcode.core.ffmpeg.FFmpegCommand.getFFmpegCommand&#45;&gt;org.bigbluebutton.transcode.core.VideoTranscoder.startTranscoder</title>
<path fill="none" stroke="black" d="M620.58,-207C617.66,-197.9 619.26,-187.93 625.38,-179.79"/>
<polygon fill="black" stroke="black" points="617.56,-208.78 625.26,-216.05 623.78,-205.57 617.56,-208.78"/>
</g>
<!-- org.bigbluebutton.transcode.core.ffmpeg.FFmpegCommand.getFFmpegCommand&#45;&gt;org.bigbluebutton.transcode.core.VideoTranscoder.startTranscoder -->
<g id="edge12" class="edge">
<title>org.bigbluebutton.transcode.core.ffmpeg.FFmpegCommand.getFFmpegCommand&#45;&gt;org.bigbluebutton.transcode.core.VideoTranscoder.startTranscoder</title>
<path fill="none" stroke="black" d="M633.58,-206.57C631.66,-197.77 632.75,-188.2 636.85,-180.28"/>
<polygon fill="black" stroke="black" points="630.32,-207.85 637.02,-216.05 636.9,-205.46 630.32,-207.85"/>
</g>
<!-- org.bigbluebutton.transcode.core.ffmpeg.FFmpegCommand.getFFmpegCommand&#45;&gt;org.bigbluebutton.transcode.core.VideoTranscoder.startTranscoder -->
<g id="edge13" class="edge">
<title>org.bigbluebutton.transcode.core.ffmpeg.FFmpegCommand.getFFmpegCommand&#45;&gt;org.bigbluebutton.transcode.core.VideoTranscoder.startTranscoder</title>
<path fill="none" stroke="black" d="M646.6,-205.67C645.6,-197.05 646.31,-187.79 648.73,-180.1"/>
<polygon fill="black" stroke="black" points="643.22,-206.61 648.67,-215.7 650.08,-205.2 643.22,-206.61"/>
</g>
<!-- org.bigbluebutton.transcode.core.ffmpeg.FFmpegCommand.getFFmpegCommand&#45;&gt;org.bigbluebutton.transcode.core.VideoTranscoder.startTranscoder -->
<g id="edge14" class="edge">
<title>org.bigbluebutton.transcode.core.ffmpeg.FFmpegCommand.getFFmpegCommand&#45;&gt;org.bigbluebutton.transcode.core.VideoTranscoder.startTranscoder</title>
<path fill="none" stroke="black" d="M659.81,-205.67C659.48,-197.05 659.71,-187.79 660.52,-180.1"/>
<polygon fill="black" stroke="black" points="656.32,-205.96 660.5,-215.7 663.3,-205.48 656.32,-205.96"/>
</g>
<!-- org.bigbluebutton.transcode.core.ffmpeg.FFmpegCommand.getFFmpegCommand&#45;&gt;org.bigbluebutton.transcode.core.VideoTranscoder.startTranscoder -->
<g id="edge15" class="edge">
<title>org.bigbluebutton.transcode.core.ffmpeg.FFmpegCommand.getFFmpegCommand&#45;&gt;org.bigbluebutton.transcode.core.VideoTranscoder.startTranscoder</title>
<path fill="none" stroke="black" d="M673.02,-205.67C673.35,-197.05 673.11,-187.79 672.31,-180.1"/>
<polygon fill="black" stroke="black" points="669.52,-205.48 672.33,-215.7 676.5,-205.96 669.52,-205.48"/>
</g>
<!-- org.bigbluebutton.transcode.core.ffmpeg.FFmpegCommand.getFFmpegCommand&#45;&gt;org.bigbluebutton.transcode.core.VideoTranscoder.startTranscoder -->
<g id="edge16" class="edge">
<title>org.bigbluebutton.transcode.core.ffmpeg.FFmpegCommand.getFFmpegCommand&#45;&gt;org.bigbluebutton.transcode.core.VideoTranscoder.startTranscoder</title>
<path fill="none" stroke="black" d="M686.22,-205.67C687.22,-197.05 686.51,-187.79 684.1,-180.1"/>
<polygon fill="black" stroke="black" points="682.75,-205.2 684.16,-215.7 689.6,-206.61 682.75,-205.2"/>
</g>
<!-- org.bigbluebutton.transcode.core.ffmpeg.FFmpegCommand.getFFmpegCommand&#45;&gt;org.bigbluebutton.transcode.core.VideoTranscoder.startTranscoder -->
<g id="edge17" class="edge">
<title>org.bigbluebutton.transcode.core.ffmpeg.FFmpegCommand.getFFmpegCommand&#45;&gt;org.bigbluebutton.transcode.core.VideoTranscoder.startTranscoder</title>
<path fill="none" stroke="black" d="M699.25,-206.57C701.16,-197.77 700.07,-188.2 695.98,-180.28"/>
<polygon fill="black" stroke="black" points="695.93,-205.46 695.8,-216.05 702.51,-207.85 695.93,-205.46"/>
</g>
<!-- org.bigbluebutton.transcode.core.ffmpeg.FFmpegCommand.getFFmpegCommand&#45;&gt;org.bigbluebutton.transcode.core.VideoTranscoder.startTranscoder -->
<g id="edge18" class="edge">
<title>org.bigbluebutton.transcode.core.ffmpeg.FFmpegCommand.getFFmpegCommand&#45;&gt;org.bigbluebutton.transcode.core.VideoTranscoder.startTranscoder</title>
<path fill="none" stroke="black" d="M712.25,-207C715.17,-197.9 713.57,-187.93 707.44,-179.79"/>
<polygon fill="black" stroke="black" points="709.05,-205.57 707.56,-216.05 715.26,-208.78 709.05,-205.57"/>
</g>
<!-- org.bigbluebutton.transcode.core.VideoTranscoder.updateGlobalStreamName -->
<g id="node8" class="node">
<title>org.bigbluebutton.transcode.core.VideoTranscoder.updateGlobalStreamName</title>
<ellipse fill="none" stroke="black" cx="1215.41" cy="-162" rx="284.8" ry="18"/>
<text text-anchor="middle" x="1215.41" y="-157.8" font-family="Times,serif" font-size="14.00">org.bigbluebutton.transcode.core.VideoTranscoder.updateGlobalStreamName</text>
</g>
<!-- org.bigbluebutton.transcode.core.ffmpeg.FFmpegCommand.getFFmpegCommand&#45;&gt;org.bigbluebutton.transcode.core.VideoTranscoder.updateGlobalStreamName -->
<g id="edge19" class="edge">
<title>org.bigbluebutton.transcode.core.ffmpeg.FFmpegCommand.getFFmpegCommand&#45;&gt;org.bigbluebutton.transcode.core.VideoTranscoder.updateGlobalStreamName</title>
<path fill="none" stroke="black" d="M797.95,-216.23C888.32,-204.71 1007.35,-189.53 1095.18,-178.33"/>
<polygon fill="black" stroke="black" points="797.39,-212.77 787.91,-217.51 798.28,-219.72 797.39,-212.77"/>
</g>
<!-- org.bigbluebutton.app.video.converter.VideoRotator.start -->
<g id="node9" class="node">
<title>org.bigbluebutton.app.video.converter.VideoRotator.start</title>
<ellipse fill="none" stroke="black" cx="1730.41" cy="-162" rx="211.61" ry="18"/>
<text text-anchor="middle" x="1730.41" y="-157.8" font-family="Times,serif" font-size="14.00">org.bigbluebutton.app.video.converter.VideoRotator.start</text>
</g>
<!-- org.bigbluebutton.transcode.core.ffmpeg.FFmpegCommand.getFFmpegCommand&#45;&gt;org.bigbluebutton.app.video.converter.VideoRotator.start -->
<g id="edge20" class="edge">
<title>org.bigbluebutton.transcode.core.ffmpeg.FFmpegCommand.getFFmpegCommand&#45;&gt;org.bigbluebutton.app.video.converter.VideoRotator.start</title>
<path fill="none" stroke="black" d="M882.69,-220.24C1053.02,-209.98 1296.42,-194.89 1509.41,-180 1532.54,-178.38 1557.02,-176.59 1580.94,-174.78"/>
<polygon fill="black" stroke="black" points="882.37,-216.75 872.6,-220.84 882.79,-223.74 882.37,-216.75"/>
</g>
</g>
</svg>
